HIERARCHY
ROOT hip
{
  OFFSET 0 0 0
  CHANNELS 6 Xposition Yposition Zposition Zrotation Yrotation Xrotation
  JOINT abdomen
  {
    OFFSET 0 20.6881 -0.73152
    CHANNELS 3 Zrotation Xrotation Yrotation
    JOINT chest
    {
      OFFSET 0 11.7043 -0.48768
      CHANNELS 3 Zrotation Xrotation Yrotation
      JOINT neck
      {
        OFFSET 0 22.1894 -2.19456
        CHANNELS 3 Zrotation Xrotation Yrotation
        JOINT head
        {
          OFFSET -0.24384 7.07133 1.2192
          CHANNELS 3 Zrotation Xrotation Yrotation
          JOINT leftEye
          {
            OFFSET 4.14528 8.04674 8.04672
            CHANNELS 3 Zrotation Xrotation Yrotation
            End Site
            {
              OFFSET 1 0 0
            }
          }
          JOINT rightEye
          {
            OFFSET -3.6576 8.04674 8.04672
            CHANNELS 3 Zrotation Xrotation Yrotation
            End Site
            {
              OFFSET 1 0 0
            }
          }
        }
      }
      JOINT rCollar
      {
        OFFSET -2.68224 19.2634 -4.8768
        CHANNELS 3 Zrotation Xrotation Yrotation
        JOINT rShldr
        {
          OFFSET -8.77824 -1.95073 1.46304
          CHANNELS 3 Zrotation Xrotation Yrotation
          JOINT rForeArm
          {
            OFFSET -28.1742 -1.7115 0.48768
            CHANNELS 3 Zrotation Xrotation Yrotation
            JOINT rHand
            {
              OFFSET -22.5879 0.773209 7.07136
              CHANNELS 3 Zrotation Xrotation Yrotation
              JOINT rThumb1
              {
                OFFSET -1.2192 -0.487915 3.41376
                CHANNELS 3 Zrotation Xrotation Yrotation
                JOINT rThumb2
                {
                  OFFSET -3.37035 -0.52449 3.41376
                  CHANNELS 3 Zrotation Xrotation Yrotation
                  End Site
                  {
                    OFFSET -1.78271 -1.18214 1.43049
                  }
                }
              }
              JOINT rIndex1
              {
                OFFSET -7.75947 0.938293 5.60832
                CHANNELS 3 Zrotation Xrotation Yrotation
                JOINT rIndex2
                {
                  OFFSET -2.54057 -0.884171 1.56538
                  CHANNELS 3 Zrotation Xrotation Yrotation
                  End Site
                  {
                    OFFSET -1.62519 -0.234802 1.16502
                  }
                }
              }
              JOINT rMid1
              {
                OFFSET -8.24714 1.18213 3.41376
                CHANNELS 3 Zrotation Xrotation Yrotation
                JOINT rMid2
                {
                  OFFSET -3.10165 -0.590103 1.0647
                  CHANNELS 3 Zrotation Xrotation Yrotation
                  End Site
                  {
                    OFFSET -2.48547 -0.328903 0.83742
                  }
                }
              }
              JOINT rRing1
              {
                OFFSET -8.82822 0.546677 1.51678
                CHANNELS 3 Zrotation Xrotation Yrotation
                JOINT rRing2
                {
                  OFFSET -2.60934 -0.819778 -0.0198488
                  CHANNELS 3 Zrotation Xrotation Yrotation
                  End Site
                  {
                    OFFSET -2.33842 -0.294052 0.168128
                  }
                }
              }
              JOINT rPinky1
              {
                OFFSET -8.27202 -0.0477905 -0.4584
                CHANNELS 3 Zrotation Xrotation Yrotation
                JOINT rPinky2
                {
                  OFFSET -1.82734 -0.647385 -0.700984
                  CHANNELS 3 Zrotation Xrotation Yrotation
                  End Site
                  {
                    OFFSET -1.69225 -0.51767 -0.607171
                  }
                }
              }
            }
          }
        }
      }
      JOINT lCollar
      {
        OFFSET 2.68224 19.2634 -4.8768
        CHANNELS 3 Zrotation Xrotation Yrotation
        JOINT lShldr
        {
          OFFSET 8.77824 -1.95073 1.46304
          CHANNELS 3 Zrotation Xrotation Yrotation
          JOINT lForeArm
          {
            OFFSET 28.1742 -1.7115 0.48768
            CHANNELS 3 Zrotation Xrotation Yrotation
            JOINT lHand
            {
              OFFSET 22.5879 0.773209 7.07136
              CHANNELS 3 Zrotation Xrotation Yrotation
              JOINT lThumb1
              {
                OFFSET 1.2192 -0.487915 3.41376
                CHANNELS 3 Zrotation Xrotation Yrotation
                JOINT lThumb2
                {
                  OFFSET 3.37035 -0.52449 3.41376
                  CHANNELS 3 Zrotation Xrotation Yrotation
                  End Site
                  {
                    OFFSET 1.78271 -1.18214 1.43049
                  }
                }
              }
              JOINT lIndex1
              {
                OFFSET 7.75947 0.938293 5.60832
                CHANNELS 3 Zrotation Xrotation Yrotation
                JOINT lIndex2
                {
                  OFFSET 2.54057 -0.884171 1.56538
                  CHANNELS 3 Zrotation Xrotation Yrotation
                  End Site
                  {
                    OFFSET 1.62519 -0.234802 1.16502
                  }
                }
              }
              JOINT lMid1
              {
                OFFSET 8.24714 1.18213 3.41376
                CHANNELS 3 Zrotation Xrotation Yrotation
                JOINT lMid2
                {
                  OFFSET 3.10165 -0.590103 1.0647
                  CHANNELS 3 Zrotation Xrotation Yrotation
                  End Site
                  {
                    OFFSET 2.48547 -0.328903 0.83742
                  }
                }
              }
              JOINT lRing1
              {
                OFFSET 8.82822 0.546677 1.51678
                CHANNELS 3 Zrotation Xrotation Yrotation
                JOINT lRing2
                {
                  OFFSET 2.60934 -0.819778 -0.0198488
                  CHANNELS 3 Zrotation Xrotation Yrotation
                  End Site
                  {
                    OFFSET 2.33842 -0.294052 0.168128
                  }
                }
              }
              JOINT lPinky1
              {
                OFFSET 8.27202 -0.0477905 -0.4584
                CHANNELS 3 Zrotation Xrotation Yrotation
                JOINT lPinky2
                {
                  OFFSET 1.82734 -0.647385 -0.700984
                  CHANNELS 3 Zrotation Xrotation Yrotation
                  End Site
                  {
                    OFFSET 1.69225 -0.51767 -0.607171
                  }
                }
              }
            }
          }
        }
      }
    }
  }
  JOINT rButtock
  {
    OFFSET -8.77824 4.35084 1.2192
    CHANNELS 3 Zrotation Xrotation Yrotation
    JOINT rThigh
    {
      OFFSET 0 -1.70687 -2.19456
      CHANNELS 3 Zrotation Xrotation Yrotation
      JOINT rShin
      {
        OFFSET 0 -36.8199 0.73152
        CHANNELS 3 Zrotation Xrotation Yrotation
        JOINT rFoot
        {
          OFFSET 0.73152 -45.1104 -5.12064
          CHANNELS 3 Zrotation Xrotation Yrotation
          End Site
          {
            OFFSET -1.1221 -3.69964 12.103
          }
        }
      }
    }
  }
  JOINT lButtock
  {
    OFFSET 8.77824 4.35084 1.2192
    CHANNELS 3 Zrotation Xrotation Yrotation
    JOINT lThigh
    {
      OFFSET 0 -1.70687 -2.19456
      CHANNELS 3 Zrotation Xrotation Yrotation
      JOINT lShin
      {
        OFFSET 0 -36.8199 0.73152
        CHANNELS 3 Zrotation Xrotation Yrotation
        JOINT lFoot
        {
          OFFSET -0.73152 -45.1104 -5.12064
          CHANNELS 3 Zrotation Xrotation Yrotation
          End Site
          {
            OFFSET 1.1221 -3.69964 12.103
          }
        }
      }
    }
  }
}
MOTION
Frames:	5
Frame Time:	0.03333
47.2113 75.9838 -18.5484 -178.313575 -17.819656 168.322441 -9.099829 41.927188 118.035552 -19.459256 6.900767 -114.088433 16.617638 35.76713 33.783421 -39.759642 -33.516503 -77.252648 -30.64378 16.570273 -55.980985 60.978171 -0.935583 -1.58893 -60.183375 -80.295023 -95.765663 -137.293027 -12.962028 -175.396062 -5.296797 44.601757 -132.617844 170.387823 23.037464 135.416933 -56.004987 66.500317 50.615545 54.737 32.085651 5.404637 -110.529975 -61.389548 162.818099 177.636817 35.257065 -83.342968 -160.734392 39.093645 137.14049 151.68032 36.090251 -154.734464 23.993988 -83.377901 -127.259138 89.328299 -3.529096 48.743003 55.825899 -5.820065 -118.70641 -141.407745 4.73695 66.34867 12.29075 33.906341 -0.074338 116.394517 -12.110323 -112.140217 156.634815 -37.073904 81.730262 24.355455 -22.391509 8.442135 -95.035046 -61.666199 -36.832244 24.96381 10.973631 53.224552 -167.148208 47.794278 161.451764 177.779181 71.554637 -63.563482 -130.014414 -6.902985 142.605521 -39.229465 79.040207 178.413928 145.077004 16.370724 150.836273 -10.009049 -33.360485 13.303743 149.74352 -6.348965 -170.993445 53.056295 -26.959869 -59.986755 25.370514 8.088426 19.756878 -110.33954 -45.977053 -180.0 -93.48813 -7.371481 153.234815 33.597109 -14.383723 -71.633357 -82.015031 -12.688773 -26.552801 96.645507 -4.340091 180.0 79.830476 -79.089559 176.808152 20.950747 -44.377056 93.598608
46.8851 75.6359 -23.4952 -179.178877 -20.657415 168.155073 -10.522792 40.332068 -163.986571 2.670848 19.325898 167.173283 19.782836 54.242935 138.530223 -60.613187 50.807497 -136.139641 -35.929477 19.376435 -55.536219 67.688749 9.373768 13.94101 -141.845288 -5.727632 174.690525 148.330735 74.549107 -147.272418 -6.134922 27.488961 98.099143 40.088719 -20.644605 -1.200364 -3.759257 67.869124 6.610171 -130.722085 -2.016208 138.70396 -127.293186 -21.368402 127.835474 -2.050719 3.286986 -151.567784 -25.085493 -3.536747 6.11939 31.888288 -57.832985 56.14027 -25.072668 74.698301 -155.203949 -99.441513 16.709328 -85.451381 42.092761 30.489161 -115.918713 -79.313603 -50.992598 79.878449 12.397013 -32.874088 12.834923 -79.386851 5.236473 11.537162 162.253247 -78.70327 -71.082796 157.156963 -7.876218 -155.47145 2.953969 6.794292 4.168641 42.991948 -45.389183 -171.707997 44.93496 -10.760374 94.689838 14.883392 -64.105347 155.848753 63.720124 57.264114 46.615557 14.537733 -47.687969 -161.246403 -78.773378 48.623716 78.034937 179.604898 -36.915152 -178.795797 22.235384 18.87513 -63.495155 -59.083812 -63.979309 41.590389 -15.151139 12.640466 -4.049552 -61.389655 -70.888311 -60.345067 82.701096 73.824742 22.567865 -26.443646 -61.536325 -150.534368 -81.944684 -13.705266 -18.56673 94.71927 -11.725512 90.96115 88.480571 9.769558 -179.823266 99.713451 75.911299 -10.378183
47.0038 74.52210000000001 -29.0813 -176.777581 -24.209247 166.522487 -5.650174 43.596061 -68.895261 19.65991 -7.911309 72.619734 19.470332 46.155156 127.876805 -67.441137 32.665111 -121.097704 -51.8458 26.173834 -51.119802 50.263309 13.18642 27.682886 -143.303021 2.655782 178.419594 174.447868 -0.086048 -177.695032 24.601944 -38.835023 100.336824 44.011061 -9.473121 -16.888904 24.466587 4.202967 -57.435341 17.603605 -56.983685 38.116094 -154.223851 -61.688007 119.039353 147.255243 1.052023 -73.383387 73.496034 -65.173867 84.678155 -148.909601 -15.893357 117.512326 -124.340162 43.704834 -57.150815 121.256366 11.419569 -101.494395 -163.503904 -21.065033 -36.742063 34.660327 -61.53054 -122.647552 95.275859 69.851727 -79.257462 26.660701 -8.979671 -77.171889 -65.844584 -19.4917 -141.905302 47.437225 43.832451 -39.536444 173.319376 -3.497865 -85.07618 -145.945935 -62.624678 97.127687 -177.03147 7.66899 152.725412 -165.114352 -37.817481 157.001373 -114.089063 -24.804479 -175.957893 68.476278 79.046765 56.41276 -92.867505 36.928206 98.186258 -167.241666 -12.218692 178.454637 -16.907414 -50.775536 -53.023587 -160.673304 -12.784134 42.2738 177.211491 55.336952 1.763771 155.442257 -5.976656 -94.075954 -74.083192 -6.87916 74.57298 -59.759697 -27.635454 60.05558 -64.56959 -18.4006 -0.0 81.527141 -27.288444 -30.047552 -89.813064 63.983553 171.639689 -171.879379 -30.191734 84.810597
46.7766 72.86449999999999 -34.059200000000004 -175.618735 -26.726435 166.527795 -6.750005 39.823855 -154.9932 4.786955 17.462708 154.82829 -13.042076 31.536807 -55.007995 65.580033 1.5346 41.321635 -45.620058 22.619763 -50.866473 35.60767 9.32688 28.504609 11.17678 26.059521 -11.053863 28.255511 5.128176 22.138376 -30.457552 -64.46402 41.251061 52.806513 -3.237466 6.216825 -56.999718 -67.207769 -114.817422 48.290823 -15.610382 -3.332462 -132.641969 -25.044444 104.813194 147.657592 32.421559 -78.280846 153.825185 -2.282318 153.529048 32.333359 -1.411649 -24.933038 -101.254412 11.985727 -59.926148 2.394522 10.916283 -85.789059 -74.494241 40.854422 -28.192075 175.316772 -10.089397 71.228974 161.633044 -77.77132 166.081202 -11.493845 10.76151 67.604826 -21.599303 -46.760387 108.844168 177.261674 18.05764 -160.341183 145.508768 15.731679 -59.623776 -60.486395 -53.338305 118.430776 164.444586 -11.698076 141.236288 -178.388242 0.412656 145.408893 92.429959 5.50396 22.704533 52.226031 -51.906187 156.616169 170.46558 -6.808744 105.570843 -54.914635 39.437857 40.581692 -14.334844 -53.050085 -68.238314 13.878163 50.147484 96.989402 176.227592 48.431942 5.036479 155.190665 -5.185825 84.223982 75.620328 0.892368 8.77236 18.153177 -14.328442 -86.022614 -29.377966 -10.862557 38.925564 28.066205 -51.959447 23.12379 92.582373 49.712015 169.046041 111.029075 -63.1699 -173.367916
46.250099999999996 70.9078 -38.812200000000004 -174.438982 -28.033263 166.372501 -3.963291 39.230357 -164.161012 1.469827 17.75121 160.469222 -18.06545 32.093174 -87.237996 60.258166 32.896218 52.640932 -39.414779 16.978334 -45.242135 28.579856 8.025583 30.79684 -66.74726 -73.984274 -94.119257 55.29365 68.531235 -49.466937 151.374322 21.178883 95.172643 135.795606 13.375888 170.069902 -173.41759 4.216158 147.044416 -84.153472 -54.249685 -129.563722 74.806994 -40.801232 34.731427 20.233028 -33.26573 100.025651 -32.694164 10.097696 -35.293017 -2.491878 -49.570832 31.682561 101.718008 46.281812 -114.153338 12.441415 3.64167 64.930254 158.115386 -2.258699 -94.550221 155.032697 -43.258128 -19.2775 170.746069 -63.321783 177.160299 177.717431 -23.192996 117.059232 6.935987 -45.750526 -74.677753 -17.943424 -7.424166 -19.990021 0.668842 -24.369054 -41.511597 65.998488 26.868448 96.769174 43.59625 28.105012 78.431724 -162.790856 -23.869085 5.606986 90.005443 37.585973 18.558187 141.794646 -70.483873 -134.66104 46.237749 30.175207 47.896243 -21.471109 -22.104466 -28.636562 -171.076705 -0.614848 -137.19639 41.693474 -39.986299 -93.497358 5.022286 30.103876 -9.937993 -58.66759 -68.754579 -57.218904 -37.453686 74.24792 -117.300942 101.294573 12.123144 -147.764644 -90.352955 -24.485522 -36.275181 101.319186 -9.533331 -180.0 -99.316465 -73.436409 155.906464 -55.549135 46.534684 -49.392153
